<?xml version="1.0" encoding="UTF-8" standalone="no"?><svg xmlns="http://www.w3.org/2000/svg" xmlns:xlink="http://www.w3.org/1999/xlink" contentScriptType="application/ecmascript" contentStyleType="text/css" height="285px" preserveAspectRatio="none" style="width:275px;height:285px;" version="1.1" viewBox="0 0 275 285" width="275px" zoomAndPan="magnify"><defs><filter height="300%" id="f1tcjnoopgv2g8" width="300%" x="-1" y="-1"><feGaussianBlur result="blurOut" stdDeviation="2.0"/><feColorMatrix in="blurOut" result="blurOut2" type="matrix" values="0 0 0 0 0 0 0 0 0 0 0 0 0 0 0 0 0 0 .4 0"/><feOffset dx="4.0" dy="4.0" in="blurOut2" result="blurOut3"/><feBlend in="SourceGraphic" in2="blurOut3" mode="normal"/></filter></defs><g><rect fill="#FFFFFF" filter="url(#f1tcjnoopgv2g8)" height="87.3984" style="stroke: #A80036; stroke-width: 1.0;" width="10" x="101" y="125.5625"/><rect fill="#FFFFFF" filter="url(#f1tcjnoopgv2g8)" height="29.1328" style="stroke: #A80036; stroke-width: 1.0;" width="10" x="237" y="154.6953"/><line style="stroke: #A80036; stroke-width: 1.0; stroke-dasharray: 5.0,5.0;" x1="106" x2="106" y1="51.2969" y2="230.9609"/><line style="stroke: #A80036; stroke-width: 1.0; stroke-dasharray: 5.0,5.0;" x1="242" x2="242" y1="51.2969" y2="230.9609"/><text fill="#000000" font-family="sans-serif" font-size="14" lengthAdjust="spacingAndGlyphs" textLength="26" x="90" y="47.9951">Foo</text><ellipse cx="106" cy="19" fill="#FEFECE" filter="url(#f1tcjnoopgv2g8)" rx="12" ry="12" style="stroke: #A80036; stroke-width: 2.0;"/><polygon fill="#A80036" points="102,7,108,2,106,7,108,12,102,7" style="stroke: #A80036; stroke-width: 1.0;"/><text fill="#000000" font-family="sans-serif" font-size="14" lengthAdjust="spacingAndGlyphs" textLength="26" x="90" y="242.9561">Foo</text><ellipse cx="106" cy="262.2578" fill="#FEFECE" filter="url(#f1tcjnoopgv2g8)" rx="12" ry="12" style="stroke: #A80036; stroke-width: 2.0;"/><polygon fill="#A80036" points="102,250.2578,108,245.2578,106,250.2578,108,255.2578,102,250.2578" style="stroke: #A80036; stroke-width: 1.0;"/><text fill="#000000" font-family="sans-serif" font-size="14" lengthAdjust="spacingAndGlyphs" textLength="23" x="227.5" y="47.9951">Bar</text><ellipse cx="242" cy="19" fill="#FEFECE" filter="url(#f1tcjnoopgv2g8)" rx="12" ry="12" style="stroke: #A80036; stroke-width: 2.0;"/><polygon fill="#A80036" points="238,7,244,2,242,7,244,12,238,7" style="stroke: #A80036; stroke-width: 1.0;"/><text fill="#000000" font-family="sans-serif" font-size="14" lengthAdjust="spacingAndGlyphs" textLength="23" x="227.5" y="242.9561">Bar</text><ellipse cx="242" cy="262.2578" fill="#FEFECE" filter="url(#f1tcjnoopgv2g8)" rx="12" ry="12" style="stroke: #A80036; stroke-width: 2.0;"/><polygon fill="#A80036" points="238,250.2578,244,245.2578,242,250.2578,244,255.2578,238,250.2578" style="stroke: #A80036; stroke-width: 1.0;"/><rect fill="#FFFFFF" filter="url(#f1tcjnoopgv2g8)" height="87.3984" style="stroke: #A80036; stroke-width: 1.0;" width="10" x="101" y="125.5625"/><rect fill="#FFFFFF" filter="url(#f1tcjnoopgv2g8)" height="29.1328" style="stroke: #A80036; stroke-width: 1.0;" width="10" x="237" y="154.6953"/><rect fill="#EEEEEE" filter="url(#f1tcjnoopgv2g8)" height="3" style="stroke: #EEEEEE; stroke-width: 1.0;" width="260" x="3" y="81.8633"/><line style="stroke: #000000; stroke-width: 1.0;" x1="3" x2="263" y1="81.8633" y2="81.8633"/><line style="stroke: #000000; stroke-width: 1.0;" x1="3" x2="263" y1="84.8633" y2="84.8633"/><rect fill="#EEEEEE" filter="url(#f1tcjnoopgv2g8)" height="23.1328" style="stroke: #000000; stroke-width: 2.0;" width="165" x="50.5" y="71.2969"/><text fill="#000000" font-family="sans-serif" font-size="13" font-weight="bold" lengthAdjust="spacingAndGlyphs" textLength="146" x="56.5" y="87.3638">Foo &lt;- thisEndpoint</text><polygon fill="#A80036" points="89,121.5625,99,125.5625,89,129.5625,93,125.5625" style="stroke: #A80036; stroke-width: 1.0;"/><line style="stroke: #A80036; stroke-width: 1.0;" x1="3" x2="95" y1="125.5625" y2="125.5625"/><text fill="#000000" font-family="sans-serif" font-size="13" lengthAdjust="spacingAndGlyphs" textLength="79" x="10" y="120.4966">thisEndpoint</text><polygon fill="#A80036" points="225,150.6953,235,154.6953,225,158.6953,229,154.6953" style="stroke: #A80036; stroke-width: 1.0;"/><line style="stroke: #A80036; stroke-width: 1.0;" x1="111" x2="231" y1="154.6953" y2="154.6953"/><text fill="#000000" font-family="sans-serif" font-size="13" lengthAdjust="spacingAndGlyphs" textLength="107" x="118" y="149.6294">AnotherEndpoint</text><polygon fill="#A80036" points="122,179.8281,112,183.8281,122,187.8281,118,183.8281" style="stroke: #A80036; stroke-width: 1.0;"/><line style="stroke: #A80036; stroke-width: 1.0; stroke-dasharray: 2.0,2.0;" x1="116" x2="241" y1="183.8281" y2="183.8281"/><text fill="#000000" font-family="sans-serif" font-size="13" lengthAdjust="spacingAndGlyphs" textLength="62" x="128" y="178.7622">Response</text><polygon fill="#A80036" points="14,208.9609,4,212.9609,14,216.9609,10,212.9609" style="stroke: #A80036; stroke-width: 1.0;"/><line style="stroke: #A80036; stroke-width: 1.0; stroke-dasharray: 2.0,2.0;" x1="8" x2="105" y1="212.9609" y2="212.9609"/><text fill="#000000" font-family="sans-serif" font-size="13" lengthAdjust="spacingAndGlyphs" textLength="62" x="20" y="207.895">Response</text><!--MD5=[4fedf062528329bade473dfc78e3ea19]
@startuml


control "Foo" as _0
control "Bar" as _1
skinparam maxMessageSize 250
== Foo <- thisEndpoint ==
[->_0 : thisEndpoint
activate _0
 _0->_1 : AnotherEndpoint
 activate _1
 _0<- -_1 : Response
 deactivate _1
[<- -_0 : Response
deactivate _0
@enduml

PlantUML version 1.2020.02beta8(Unknown compile time)
(GPL source distribution)
Java Runtime: Java(TM) SE Runtime Environment
JVM: Java HotSpot(TM) 64-Bit Server VM
Java Version: 1.7.0_25-b15
Operating System: Linux
Default Encoding: UTF-8
Language: en
Country: US
--></g></svg>